<svg width="499" height="136" viewBox="0 0 499 136" fill="none" xmlns="http://www.w3.org/2000/svg">
<path d="M239.808 0.814692C241.866 0.812504 243.923 0.79426 245.98 0.775385C261.035 0.710164 274.773 3.23953 289 7.99999C289.75 8.24927 290.5 8.49854 291.273 8.75537C303.455 12.8966 315.052 18.2294 326.625 23.8125C327.345 24.1584 328.064 24.5043 328.806 24.8607C336.456 28.5539 343.8 32.3607 350.902 37.0437C360.537 43.3556 368.059 43.8117 379.434 43.2109C412.229 41.4946 454.872 59.4057 480.27 79.5195C483.337 82.3064 484.746 84.1774 485.319 88.29C485.366 89.5154 485.366 89.5154 485.414 90.7656C485.453 91.6551 485.491 92.5445 485.531 93.4609C485.578 94.8415 485.578 94.8415 485.625 96.25C485.664 97.1859 485.702 98.1217 485.742 99.0859C485.836 101.39 485.922 103.695 486 106C486.548 106.196 487.096 106.393 487.66 106.595C488.379 106.857 489.099 107.12 489.84 107.391C490.909 107.778 490.909 107.778 492 108.173C494.822 109.34 496.347 110.413 498 113C498.25 116.5 498.25 116.5 497 120C490.249 125.54 479.852 126.214 471.469 126.852C470.683 126.916 469.897 126.98 469.087 127.046C466.558 127.248 464.029 127.438 461.5 127.625C460.638 127.689 459.775 127.754 458.887 127.82C448.059 128.617 437.233 129.333 426.375 129.5C425.377 129.53 424.378 129.561 423.35 129.592C416.025 129.596 416.025 129.596 412.852 126.469C412.241 125.654 411.63 124.839 411 124C410.29 124.58 410.29 124.58 409.566 125.172C399.511 133.091 389.792 136.053 377 135C368.005 133.243 361.112 129.715 354 124C353.711 124.639 353.422 125.279 353.125 125.937C352 128 352 128 350 129C347.796 129.107 345.589 129.147 343.383 129.158C342.695 129.163 342.006 129.168 341.297 129.173C338.976 129.189 336.655 129.197 334.334 129.205C332.673 129.215 331.011 129.225 329.35 129.235C324.812 129.262 320.274 129.283 315.735 129.303C310.94 129.325 306.144 129.353 301.349 129.379C293.242 129.424 285.135 129.464 277.028 129.503C268.805 129.541 260.583 129.583 252.36 129.628C251.361 129.633 250.362 129.639 249.333 129.644C247.323 129.655 245.314 129.666 243.304 129.677C224.972 129.777 206.64 129.864 188.308 129.936C179.534 129.971 170.761 130.011 161.988 130.063C156.406 130.096 150.823 130.12 145.24 130.139C143.085 130.148 140.93 130.16 138.776 130.176C135.927 130.197 133.079 130.205 130.23 130.211C129.421 130.22 128.612 130.229 127.779 130.238C123.971 130.231 122.25 130.167 119 128C118.312 125.875 118.312 125.875 118 124C117.371 124.471 116.742 124.941 116.094 125.426C105.408 133.199 96.2003 135.824 83 135C74.4868 133.559 66.2818 129.516 60.375 123.187C57.5766 120.61 55.9485 120.743 52.292 120.369C48.1121 119.696 44.3263 118 40.4375 116.375C39.5721 116.02 38.7068 115.666 37.8152 115.3C32.2711 113.006 26.767 110.625 21.3125 108.125C20.6833 107.839 20.0542 107.554 19.406 107.259C15.1219 105.244 15.1219 105.244 14 103C13.7899 101.14 13.6316 99.2736 13.5 97.4062C13.3762 95.7376 13.3762 95.7376 13.25 94.0351C13.0833 91.6784 12.9166 89.3216 12.75 86.9648C12.6262 85.2961 12.6262 85.2961 12.5 83.5937C12.3917 82.0575 12.3917 82.0575 12.2812 80.4902C12.1449 78.0033 12.1449 78.0033 11 76C10.8398 72.8433 10.8847 69.7224 10.9609 66.5625C11.0716 63.087 11.0716 63.087 10.664 60C10.4123 55.5877 10.735 52.5697 13.5854 49.0327C24.0642 37.9679 24.0642 37.9679 30 35C30.6521 32.9754 30.6521 32.9754 31 31C29.7831 31.0825 28.5662 31.165 27.3125 31.25C20.7982 31.2397 15.0524 29.2506 8.99998 27C8.13889 26.7422 7.2778 26.4844 6.39061 26.2187C3.68896 25.1074 2.58194 24.4866 0.999983 22C-0.0678516 16.4031 0.28394 10.6168 0.999983 4.99999C3.6571 2.34287 5.65673 2.73981 9.27247 2.69645C10.5646 2.69782 10.5646 2.69782 11.8828 2.69921C12.771 2.69493 13.6593 2.69064 14.5744 2.68623C16.4591 2.68048 18.3438 2.67999 20.2285 2.68432C23.0928 2.68746 25.9561 2.66411 28.8203 2.63867C30.6536 2.63639 32.487 2.63569 34.3203 2.63671C35.1696 2.6275 36.0188 2.61829 36.8938 2.6088C43.505 2.65941 49.1317 3.72086 54.4531 7.94921C56.8825 12.7406 56.6788 17.5125 56.75 22.8125C56.7796 23.8869 56.8093 24.9614 56.8398 26.0684C56.9103 28.7123 56.9631 31.3554 57 34C57.66 33.67 58.32 33.34 59 33C60.6449 32.8956 62.2933 32.8434 63.9414 32.8164C77.3647 32.3665 89.2244 30.5371 101.937 26.4375C102.622 26.2173 103.307 25.997 104.012 25.7701C105.415 25.318 106.819 24.8656 108.222 24.4131C108.925 24.1865 109.628 23.96 110.352 23.7266C111.058 23.4981 111.765 23.2696 112.494 23.0342C145.103 12.6045 179.947 5.40268 214 1.99999C214.9 1.90646 215.8 1.81292 216.727 1.71655C224.418 0.988248 232.087 0.813777 239.808 0.814692Z" fill="#9958B4"/>
<path d="M239.808 0.814692C241.866 0.812504 243.923 0.79426 245.98 0.775385C261.035 0.710164 274.773 3.23953 289 7.99999C289.75 8.24927 290.5 8.49854 291.273 8.75537C303.455 12.8966 315.052 18.2294 326.625 23.8125C327.345 24.1584 328.064 24.5043 328.806 24.8607C336.456 28.5539 343.8 32.3607 350.902 37.0437C360.537 43.3556 368.059 43.8117 379.434 43.2109C412.229 41.4946 454.872 59.4057 480.27 79.5195C483.337 82.3064 484.746 84.1774 485.319 88.29C485.366 89.5154 485.366 89.5154 485.414 90.7656C485.453 91.6551 485.491 92.5445 485.531 93.4609C485.578 94.8415 485.578 94.8415 485.625 96.25C485.664 97.1859 485.702 98.1217 485.742 99.0859C485.836 101.39 485.922 103.695 486 106C486.548 106.196 487.096 106.393 487.66 106.595C488.379 106.857 489.099 107.12 489.84 107.391C490.909 107.778 490.909 107.778 492 108.173C494.822 109.34 496.347 110.413 498 113C498.25 116.5 498.25 116.5 497 120C490.249 125.54 479.852 126.214 471.469 126.852C470.683 126.916 469.897 126.98 469.087 127.046C466.558 127.248 464.029 127.438 461.5 127.625C460.638 127.689 459.775 127.754 458.887 127.82C448.059 128.617 437.233 129.333 426.375 129.5C425.377 129.53 424.378 129.561 423.35 129.592C416.025 129.596 416.025 129.596 412.852 126.469C412.241 125.654 411.63 124.839 411 124C410.29 124.58 410.29 124.58 409.566 125.172C399.511 133.091 389.792 136.053 377 135C368.005 133.243 361.112 129.715 354 124C353.711 124.639 353.422 125.279 353.125 125.937C352 128 352 128 350 129C347.796 129.107 345.589 129.147 343.383 129.158C342.695 129.163 342.006 129.168 341.297 129.173C338.976 129.189 336.655 129.197 334.334 129.205C332.673 129.215 331.011 129.225 329.35 129.235C324.812 129.262 320.274 129.283 315.735 129.303C310.94 129.325 306.144 129.353 301.349 129.379C293.242 129.424 285.135 129.464 277.028 129.503C268.805 129.541 260.583 129.583 252.36 129.628C251.361 129.633 250.362 129.639 249.333 129.644C247.323 129.655 245.314 129.666 243.304 129.677C224.972 129.777 206.64 129.864 188.308 129.936C179.534 129.971 170.761 130.011 161.988 130.063C156.406 130.096 150.823 130.12 145.24 130.139C143.085 130.148 140.93 130.16 138.776 130.176C135.927 130.197 133.079 130.205 130.23 130.211C129.421 130.22 128.612 130.229 127.779 130.238C123.971 130.231 122.25 130.167 119 128C118.312 125.875 118.312 125.875 118 124C117.371 124.471 116.742 124.941 116.094 125.426C105.408 133.199 96.2003 135.824 83 135C74.4868 133.559 66.2818 129.516 60.375 123.187C57.5766 120.61 55.9485 120.743 52.292 120.369C48.1121 119.696 44.3263 118 40.4375 116.375C39.5721 116.02 38.7068 115.666 37.8152 115.3C32.2711 113.006 26.767 110.625 21.3125 108.125C20.6833 107.839 20.0542 107.554 19.406 107.259C15.1219 105.244 15.1219 105.244 14 103C13.7899 101.14 13.6316 99.2736 13.5 97.4062C13.3762 95.7376 13.3762 95.7376 13.25 94.0351C13.0833 91.6784 12.9166 89.3216 12.75 86.9648C12.6262 85.2961 12.6262 85.2961 12.5 83.5937C12.3917 82.0575 12.3917 82.0575 12.2812 80.4902C12.1449 78.0033 12.1449 78.0033 11 76C10.8398 72.8433 10.8847 69.7224 10.9609 66.5625C11.0716 63.087 11.0716 63.087 10.664 60C10.4123 55.5877 10.735 52.5697 13.5854 49.0327C24.0642 37.9679 24.0642 37.9679 30 35C30.6521 32.9754 30.6521 32.9754 31 31C29.7831 31.0825 28.5662 31.165 27.3125 31.25C20.7982 31.2397 15.0524 29.2506 8.99998 27C8.13889 26.7422 7.2778 26.4844 6.39061 26.2187C3.68896 25.1074 2.58194 24.4866 0.999983 22C-0.0678516 16.4031 0.28394 10.6168 0.999983 4.99999C3.6571 2.34287 5.65673 2.73981 9.27247 2.69645C10.5646 2.69782 10.5646 2.69782 11.8828 2.69921C12.771 2.69493 13.6593 2.69064 14.5744 2.68623C16.4591 2.68048 18.3438 2.67999 20.2285 2.68432C23.0928 2.68746 25.9561 2.66411 28.8203 2.63867C30.6536 2.63639 32.487 2.63569 34.3203 2.63671C35.1696 2.6275 36.0188 2.61829 36.8938 2.6088C43.505 2.65941 49.1317 3.72086 54.4531 7.94921C56.8825 12.7406 56.6788 17.5125 56.75 22.8125C56.7796 23.8869 56.8093 24.9614 56.8398 26.0684C56.9103 28.7123 56.9631 31.3554 57 34C57.66 33.67 58.32 33.34 59 33C60.6449 32.8956 62.2933 32.8434 63.9414 32.8164C77.3647 32.3665 89.2244 30.5371 101.937 26.4375C102.622 26.2173 103.307 25.997 104.012 25.7701C105.415 25.318 106.819 24.8656 108.222 24.4131C108.925 24.1865 109.628 23.96 110.352 23.7266C111.058 23.4981 111.765 23.2696 112.494 23.0342C145.103 12.6045 179.947 5.40268 214 1.99999C214.9 1.90646 215.8 1.81292 216.727 1.71655C224.418 0.988248 232.087 0.813777 239.808 0.814692ZM195.349 13.4233C192.13 13.9777 188.906 14.4737 185.676 14.957C154.631 19.8178 116.313 25.8433 88 40C86.3987 40.1753 84.7913 40.296 83.1831 40.3889C82.1822 40.4489 81.1813 40.5089 80.1501 40.5707C79.0667 40.6312 77.9834 40.6916 76.8672 40.7539C75.7602 40.8191 74.6532 40.8842 73.5127 40.9514C69.967 41.1592 66.421 41.3609 62.875 41.5625C60.4752 41.7021 58.0755 41.842 55.6758 41.9824C49.7841 42.3262 43.8922 42.665 38 43C39.32 43.99 40.64 44.98 42 46C41.4914 53.3744 39.7145 57.2855 34.375 62.625C31.0026 65.3471 27.1745 66.5377 23.0742 67.8125C20.7354 68.8458 20.7354 68.8458 20.1445 71.5625C20.0968 72.3669 20.0491 73.1712 20 74C20.33 74.33 20.66 74.66 21 75C21.2279 76.7769 21.3949 78.5617 21.5351 80.3476C21.6222 81.4272 21.7092 82.5068 21.7988 83.6191C21.8858 84.7554 21.9728 85.8918 22.0625 87.0625C22.1534 88.2027 22.2442 89.3428 22.3379 90.5176C22.5626 93.3447 22.7831 96.1722 23 99C26.7478 100.651 30.4986 102.295 34.25 103.937C35.3135 104.406 36.3769 104.875 37.4726 105.357C38.4974 105.805 39.5222 106.253 40.5781 106.715C41.5207 107.129 42.4634 107.542 43.4346 107.968C45.6261 108.85 47.696 109.505 50 110C49.9686 109.148 49.9686 109.148 49.9365 108.279C49.405 91.6401 50.0978 77.8535 62 65C64.8224 62.559 67.6981 60.7259 71 59C71.736 58.5888 72.4721 58.1776 73.2305 57.7539C82.2495 53.3879 93.5228 53.478 102.937 56.625C114.684 61.6795 122.245 69.0535 127.273 80.8594C130.604 90.6706 129.058 101.803 128.492 111.992C128.445 112.863 128.398 113.734 128.349 114.631C128.234 116.754 128.117 118.877 128 121C158.106 121.076 188.211 120.962 218.316 120.781C219.228 120.776 220.139 120.77 221.079 120.765C232.355 120.697 243.632 120.626 254.908 120.555C264.65 120.493 274.392 120.433 284.134 120.373C304.09 120.251 324.045 120.126 344 120C343.974 119.003 343.948 118.005 343.921 116.978C343.829 113.22 343.772 109.463 343.725 105.706C343.7 104.09 343.666 102.474 343.623 100.859C343.275 87.648 344.684 77.114 354 67C354 66.34 354 65.68 354 65C354.559 64.7319 355.119 64.4637 355.695 64.1875C359.039 62.4645 362.182 60.4348 365.367 58.4375C373.976 53.7374 383.939 53.8353 393.395 55.6523C404.069 58.845 412.237 65.4938 418 75C422.279 84.9161 422.503 94.2572 422.25 104.812C422.23 106.295 422.212 107.777 422.195 109.26C422.152 112.84 422.083 116.42 422 120C434.976 120.234 447.863 120.039 460.812 119.125C461.961 119.047 463.109 118.968 464.292 118.887C471.3 118.355 478.115 117.41 485 116C482.334 114.223 479.972 113.125 477 112C476.991 111.294 476.981 110.588 476.972 109.86C476.918 106.656 476.834 103.453 476.75 100.25C476.736 99.1388 476.722 98.0276 476.707 96.8828C476.659 95.2779 476.659 95.2779 476.609 93.6406C476.588 92.6561 476.567 91.6716 476.546 90.6572C475.859 87.3134 474.663 86.0761 472 84C469.603 83.9441 469.603 83.9441 467.25 84.75C466.451 84.9717 465.652 85.1934 464.828 85.4219C463.923 85.708 463.923 85.708 463 86C463.062 87.8562 463.062 87.8562 463.125 89.75C463.137 93.0164 462.857 95.2147 461 98C455.081 97.5745 451.505 95.8838 446.687 92.5C445.711 91.8283 445.711 91.8283 444.715 91.1431C427.054 78.7687 427.054 78.7687 424 70C423.91 67.0846 424.332 64.8768 425 62C418.843 59.0747 412.548 57.4763 405.937 55.875C404.875 55.6107 403.812 55.3465 402.717 55.0742C395.69 53.3451 389.192 51.8153 381.914 52.1406C364.102 52.5382 352.855 49.2117 337.902 39.7798C333.157 36.8696 328.228 34.3586 323.25 31.875C322.276 31.388 321.301 30.9009 320.298 30.3992C298.547 19.7478 275.464 10.028 250.926 9.76171C250.172 9.75196 249.419 9.74222 248.643 9.73217C230.557 9.54694 213.215 10.3152 195.349 13.4233Z" fill="#010102"/>
<path d="M283 22C284.007 22.3369 284.007 22.3369 285.035 22.6807C301.043 28.1562 315.621 36.7535 329 47C329.945 47.7025 330.89 48.4051 331.863 49.1289C334 51 334 51 334.438 53.625C334 56 334 56 332 58C326.307 58.9796 320.696 59.1713 314.93 59.2031C314.069 59.2103 313.209 59.2174 312.322 59.2248C259.989 59.5581 208.476 52.4292 156.812 44.625C155.999 44.5039 155.185 44.3829 154.347 44.2581C152.112 43.923 149.878 43.5771 147.645 43.2266C146.421 43.0366 145.197 42.8466 143.937 42.6509C141 42 141 42 138 40C137.5 37.5625 137.5 37.5625 138 35C141.467 32.5004 144.757 31.3562 148.891 30.3867C150.059 30.1111 151.227 29.8355 152.43 29.5515C153.691 29.2664 154.951 28.9813 156.25 28.6875C156.901 28.5383 157.553 28.389 158.224 28.2353C244.294 8.55321 244.294 8.55321 283 22Z" fill="#040305"/>
<path d="M401.187 67.2852C408.26 72.0938 412.75 78.777 415 87C415.993 96.7453 415.182 105.131 409.422 113.215C404.285 119.427 398.844 123.866 391 126C379.603 127.016 370.844 126.11 361.75 118.75C355.572 113.002 351.521 106.164 350.664 97.668C350.58 90.147 351.008 84.4499 355 78C355.412 77.3026 355.825 76.6052 356.25 75.8867C360.671 69.2176 366.804 66.007 373.875 62.625C384.043 60.5913 392.318 62.0742 401.187 67.2852Z" fill="#1A2D34"/>
<path d="M103.062 64.5625C111.344 69.1045 118.046 75.9107 121 85C123.262 95.1806 121.906 103.603 116.457 112.527C111.217 119.734 104.883 124.424 96 126C84.8579 127.155 76.7418 125.23 67.8398 118.324C61.8734 112.814 58.3766 105.958 57.7617 97.8633C57.6022 90.2301 58.0212 84.5743 62 78C62.3274 77.3877 62.6548 76.7754 62.9922 76.1445C70.7451 63.3268 89.5405 59.0016 103.062 64.5625Z" fill="#1A2D34"/>
<path d="M319 50C319 50.33 319 50.66 319 51C266.861 51.992 215.437 44.9306 164 37C168.494 34.5757 173.102 33.691 178.062 32.625C179.065 32.4088 180.067 32.1925 181.099 31.9697C189.07 30.3018 197.071 28.9508 205.125 27.75C206.757 27.5056 206.757 27.5056 208.422 27.2563C247.813 21.6192 286.507 25.102 319 50Z" fill="#FBFBF9"/>
<path d="M394 53C398.095 53.839 402.139 54.8356 406.188 55.875C407.228 56.1315 408.269 56.3881 409.342 56.6523C414.811 58.0344 419.897 59.5893 425 62C424.732 63.155 424.464 64.31 424.188 65.5C423.637 70.021 424.834 72.439 427.445 76.0742C427.958 76.7097 428.471 77.3452 429 78C429.677 78.845 429.677 78.845 430.367 79.707C436.118 86.0685 443.806 90.4525 451 95C451.919 95.5891 452.838 96.1782 453.785 96.7852C456.379 98.2078 458.085 98.2498 461 98C463.6 94.0997 463.151 90.5257 463 86C464.408 85.5548 465.827 85.1448 467.25 84.75C468.433 84.402 468.433 84.402 469.641 84.0469C472 84 472 84 474.109 85.6445C476.417 88.5191 476.532 89.9927 476.609 93.6406C476.642 94.7106 476.674 95.7805 476.707 96.8828C476.721 97.994 476.735 99.1052 476.75 100.25C476.78 101.377 476.809 102.503 476.84 103.664C476.91 106.443 476.963 109.221 477 112C479.64 112.99 482.28 113.98 485 115C485 115.33 485 115.66 485 116C476.958 117.648 468.999 118.566 460.812 119.125C459.609 119.21 458.405 119.295 457.165 119.382C445.44 120.146 433.744 120.212 422 120C422.021 119.099 422.042 118.197 422.063 117.269C422.132 113.86 422.182 110.452 422.22 107.042C422.24 105.579 422.267 104.116 422.302 102.653C422.597 90.0052 421.637 78.0051 412.969 67.9961C403.845 58.7459 393.917 54.8612 381 54C385.423 51.0511 388.905 52.1668 394 53Z" fill="#9857B3"/>
<path d="M169.75 58.1875C171.014 58.2642 171.014 58.2642 172.303 58.3425C192.706 59.7689 192.706 59.7689 196.859 63.8086C198.115 66.2218 198.458 68.0552 198.75 70.75C200.044 77.661 203.832 80.954 208.779 85.7105C210.124 87.0071 211.466 88.3079 212.804 89.6126C214.167 90.9371 215.543 92.2486 216.932 93.5457C219.937 96.4472 221.775 98.3 223.07 102.336C223 105 223 105 221 107C206.848 109.018 191.747 103.845 180.25 95.8008C171.483 88.7843 159.079 74.0608 157.688 62.375C157.791 61.5913 157.894 60.8075 158 60C161.967 57.3555 165.184 57.8925 169.75 58.1875Z" fill="#030103"/>
<path d="M95 78C100.002 80.4557 103.499 83.997 106 89C106.625 94.6068 106.611 99.6759 103.391 104.461C100.232 107.957 96.5824 110.492 91.9141 111.41C87.2235 111.617 83.8476 110.593 80 108C75.6651 103.706 73.259 100.547 72.625 94.3125C72.6998 89.2371 74.812 85.8324 78 82C83.0282 77.2113 88.3819 77.0236 95 78Z" fill="#020202"/>
<path d="M391.875 79.625C396.574 83.196 398.98 86.5637 400 92.375C400.347 97.3987 398.943 100.967 396 105C393.182 108.028 390.243 110.614 386 111C384.36 111.155 384.36 111.155 382.688 111.313C376.922 110.824 373.473 108.628 369.625 104.375C366.239 99.4255 366.431 94.8811 367 89C368.293 84.7301 370.604 82.3093 374.125 79.5625C379.749 76.7748 386.282 76.7686 391.875 79.625Z" fill="#020202"/>
<path d="M10 11C14.0018 10.9502 18.0035 10.9141 22.0056 10.8901C23.3644 10.8801 24.7231 10.8665 26.0818 10.8491C28.0453 10.8246 30.009 10.8145 31.9727 10.8047C33.1509 10.7942 34.3292 10.7837 35.5432 10.7729C44.3515 11.3515 44.3515 11.3515 47 14C47.1569 15.5595 47.2508 17.1254 47.3164 18.6914C47.3583 19.6356 47.4002 20.5799 47.4434 21.5527C47.4827 22.546 47.522 23.5392 47.5625 24.5625C47.6057 25.5596 47.6489 26.5567 47.6934 27.584C47.7998 30.0558 47.9018 32.5278 48 35C45.36 35 42.72 35 40 35C39.505 28.565 39.505 28.565 39 22C34.2894 20.6279 34.2894 20.6279 31 22C23.7196 22.9252 17.6177 20.9425 11 18C10 17 10 17 9.9375 13.9375C9.95813 12.9681 9.97875 11.9987 10 11Z" fill="#4B0767"/>
<path d="M169 67C171.376 67.1149 173.75 67.2416 176.125 67.375C177.123 67.4214 177.123 67.4214 178.141 67.4688C182.387 67.7185 186.148 68.1434 190 70C191.102 72.1719 191.102 72.1719 191.625 74.75C193.772 83.24 198.77 87.9479 204.953 93.9258C207 96 207 96 207 97C196.947 96.6649 188.604 92.8225 181.25 85.9375C177.574 82.0062 169 72.5732 169 67Z" fill="#4C0768"/>
<path d="M432 67C437.224 67.533 441.226 68.8601 446 71C447.537 71.5141 449.079 72.0137 450.625 72.5C454.062 73.6162 457.028 74.891 460 77C460 77.33 460 77.66 460 78C458.02 78.66 456.04 79.32 454 80C454 82.31 454 84.62 454 87C450.301 85.6846 447.551 84.0852 444.5 81.625C443.724 81.0024 442.948 80.3798 442.148 79.7383C441.439 79.1646 440.73 78.591 440 78C439.051 77.2781 438.103 76.5562 437.125 75.8125C435.009 74.0078 433.453 72.3701 432 70C432 69.01 432 68.02 432 67Z" fill="#F6F6F4"/>
<path d="M388 87C390.5 89.1875 390.5 89.1875 392 92C392 95.5948 391.4 97.4155 389.375 100.375C386.069 102.637 383.926 102.491 380 102C377.625 100.938 377.625 100.938 376 99C375 95.625 375 95.625 375 92C378.715 86.1075 381.283 85.3788 388 87Z" fill="#F8F8F6"/>
<path d="M90 85.375C94.107 86.2306 95.554 87.6188 98 91C98.6249 94.9578 98.6101 97.0086 96.5 100.438C93.4681 102.332 91.4392 102.64 87.9062 102.449C86 102 86 102 83.5 99.875C81.722 96.4671 81.2904 94.7845 82 91C84.4559 87.6773 85.9257 86.2238 90 85.375Z" fill="#F9F9F7"/>
<path d="M30.375 50.1875C31.2412 50.4556 32.1075 50.7238 33 51C31.502 54.8131 29.3735 56.7248 26 59C23.1875 59.75 23.1875 59.75 21 60C20.625 57.8125 20.625 57.8125 21 55C25.6345 49.9241 25.6345 49.9241 30.375 50.1875Z" fill="#CD5D20"/>
</svg>
